Normalized EMG Linear Envelopes
nRows=38
nColumns=17

endheader
time	        VM	        VL	        RF	       GRA	        TA	   ADDLONG	   SEMIMEM	      BFLH	        GM	        GL	       TFL	   GLUTMAX	   GLUTMED	      PIRI	    OBTINT	        QF	
1.075	  0.274567	  0.162477	  0.098922	  0.093079	  0.074277	  0.482474	  0.138923	  0.144036	  0.195155	  0.183789	  0.029502	  0.397032	  0.341438	  0.066869	  0.301192	  0.584014	
1.0755	  0.280157	  0.165275	  0.100529	  0.094365	  0.075027	  0.486574	  0.140942	  0.147406	  0.198822	  0.186799	  0.029980	  0.401876	  0.347817	  0.067603	  0.303974	  0.591318	
1.076	  0.285786	  0.168079	  0.102136	  0.095645	  0.075764	  0.490549	  0.142951	  0.150807	  0.202505	  0.189810	  0.030459	  0.406680	  0.354219	  0.068330	  0.306702	  0.598569	
1.0765	  0.291453	  0.170888	  0.103744	  0.096918	  0.076488	  0.494394	  0.144949	  0.154240	  0.206202	  0.192821	  0.030938	  0.411445	  0.360639	  0.069048	  0.309375	  0.605766	
1.077	  0.297159	  0.173702	  0.105352	  0.098184	  0.077200	  0.498104	  0.146935	  0.157702	  0.209913	  0.195832	  0.031418	  0.416169	  0.367075	  0.069759	  0.311995	  0.612910	
1.0775	  0.302902	  0.176520	  0.106961	  0.099443	  0.077899	  0.501676	  0.148908	  0.161194	  0.213638	  0.198842	  0.031897	  0.420852	  0.373524	  0.070462	  0.314563	  0.620002	
1.078	  0.308681	  0.179342	  0.108569	  0.100694	  0.078586	  0.505106	  0.150867	  0.164714	  0.217374	  0.201849	  0.032378	  0.425494	  0.379985	  0.071158	  0.317079	  0.627043	
1.0785	  0.314498	  0.182167	  0.110177	  0.101936	  0.079261	  0.508388	  0.152811	  0.168263	  0.221123	  0.204854	  0.032858	  0.430094	  0.386453	  0.071847	  0.319546	  0.634034	
1.079	  0.320351	  0.184994	  0.111785	  0.103171	  0.079924	  0.511520	  0.154738	  0.171840	  0.224882	  0.207855	  0.033339	  0.434654	  0.392927	  0.072530	  0.321964	  0.640977	
1.0795	  0.326240	  0.187823	  0.113392	  0.104397	  0.080575	  0.514498	  0.156649	  0.175443	  0.228652	  0.210853	  0.033821	  0.439173	  0.399404	  0.073208	  0.324334	  0.647874	
1.08	  0.332165	  0.190653	  0.114999	  0.105614	  0.081215	  0.517317	  0.158541	  0.179074	  0.232432	  0.213847	  0.034302	  0.443650	  0.405881	  0.073880	  0.326659	  0.654725	
1.0805	  0.338125	  0.193484	  0.116605	  0.106822	  0.081844	  0.519975	  0.160415	  0.182731	  0.236221	  0.216836	  0.034784	  0.448087	  0.412357	  0.074548	  0.328940	  0.661532	
1.081	  0.344121	  0.196315	  0.118210	  0.108021	  0.082462	  0.522468	  0.162270	  0.186413	  0.240019	  0.219822	  0.035266	  0.452484	  0.418828	  0.075211	  0.331179	  0.668295	
1.0815	  0.350150	  0.199145	  0.119813	  0.109212	  0.083070	  0.524792	  0.164104	  0.190120	  0.243824	  0.222802	  0.035749	  0.456840	  0.425293	  0.075871	  0.333376	  0.675016	
1.082	  0.356214	  0.201974	  0.121416	  0.110393	  0.083669	  0.526945	  0.165918	  0.193851	  0.247637	  0.225778	  0.036232	  0.461156	  0.431750	  0.076528	  0.335533	  0.681696	
1.0825	  0.362311	  0.204801	  0.123017	  0.111564	  0.084257	  0.528923	  0.167712	  0.197607	  0.251455	  0.228748	  0.036715	  0.465432	  0.438195	  0.077183	  0.337652	  0.688334	
1.083	  0.368440	  0.207626	  0.124616	  0.112727	  0.084836	  0.530725	  0.169484	  0.201385	  0.255280	  0.231714	  0.037198	  0.469667	  0.444626	  0.077835	  0.339733	  0.694933	
1.0835	  0.374601	  0.210447	  0.126213	  0.113880	  0.085406	  0.532349	  0.171235	  0.205186	  0.259110	  0.234674	  0.037681	  0.473862	  0.451041	  0.078486	  0.341779	  0.701492	
1.084	  0.380793	  0.213264	  0.127808	  0.115024	  0.085967	  0.533795	  0.172965	  0.209008	  0.262945	  0.237629	  0.038165	  0.478015	  0.457437	  0.079136	  0.343791	  0.708013	
1.0845	  0.387015	  0.216077	  0.129401	  0.116159	  0.086520	  0.535060	  0.174673	  0.212852	  0.266785	  0.240580	  0.038649	  0.482126	  0.463812	  0.079785	  0.345771	  0.714498	
1.085	  0.393265	  0.218884	  0.130990	  0.117284	  0.087065	  0.536144	  0.176359	  0.216715	  0.270630	  0.243526	  0.039133	  0.486195	  0.470163	  0.080434	  0.347719	  0.720948	
1.0855	  0.399543	  0.221687	  0.132576	  0.118401	  0.087602	  0.537047	  0.178024	  0.220597	  0.274479	  0.246467	  0.039617	  0.490221	  0.476489	  0.081083	  0.349637	  0.727363	
1.086	  0.405847	  0.224482	  0.134158	  0.119509	  0.088133	  0.537770	  0.179666	  0.224497	  0.278332	  0.249405	  0.040102	  0.494203	  0.482785	  0.081734	  0.351526	  0.733746	
1.0865	  0.412176	  0.227272	  0.135736	  0.120608	  0.088656	  0.538312	  0.181286	  0.228415	  0.282189	  0.252338	  0.040586	  0.498141	  0.489051	  0.082385	  0.353389	  0.740097	
1.087	  0.418529	  0.230053	  0.137309	  0.121699	  0.089174	  0.538677	  0.182883	  0.232348	  0.286050	  0.255268	  0.041070	  0.502033	  0.495284	  0.083039	  0.355225	  0.746417	
1.0875	  0.424902	  0.232826	  0.138877	  0.122780	  0.089685	  0.538867	  0.184457	  0.236296	  0.289915	  0.258193	  0.041555	  0.505878	  0.501482	  0.083695	  0.357036	  0.752708	
1.088	  0.431296	  0.235591	  0.140440	  0.123853	  0.090190	  0.538883	  0.186008	  0.240257	  0.293784	  0.261115	  0.042039	  0.509676	  0.507642	  0.084354	  0.358823	  0.758971	
1.0885	  0.437709	  0.238346	  0.141997	  0.124916	  0.090691	  0.538729	  0.187536	  0.244231	  0.297656	  0.264032	  0.042523	  0.513425	  0.513762	  0.085016	  0.360588	  0.765208	
1.089	  0.444137	  0.241091	  0.143548	  0.125971	  0.091186	  0.538409	  0.189040	  0.248216	  0.301532	  0.266946	  0.043006	  0.517124	  0.519840	  0.085681	  0.362332	  0.771420	
1.0895	  0.450580	  0.243825	  0.145092	  0.127017	  0.091677	  0.537924	  0.190520	  0.252211	  0.305411	  0.269856	  0.043489	  0.520771	  0.525874	  0.086351	  0.364055	  0.777610	
1.09	  0.457035	  0.246547	  0.146628	  0.128053	  0.092163	  0.537278	  0.191976	  0.256214	  0.309292	  0.272761	  0.043972	  0.524365	  0.531860	  0.087025	  0.365760	  0.783779	
1.0905	  0.463501	  0.249257	  0.148157	  0.129080	  0.092646	  0.536474	  0.193406	  0.260223	  0.313175	  0.275662	  0.044454	  0.527906	  0.537796	  0.087705	  0.367447	  0.789929	
1.091	  0.469974	  0.251953	  0.149678	  0.130097	  0.093125	  0.535513	  0.194812	  0.264237	  0.317061	  0.278559	  0.044935	  0.531390	  0.543681	  0.088389	  0.369119	  0.796060	
1.0915	  0.476453	  0.254635	  0.151190	  0.131104	  0.093601	  0.534400	  0.196192	  0.268255	  0.320947	  0.281451	  0.045416	  0.534817	  0.549511	  0.089080	  0.370775	  0.802176	
1.092	  0.482936	  0.257302	  0.152692	  0.132102	  0.094075	  0.533137	  0.197546	  0.272275	  0.324835	  0.284339	  0.045895	  0.538186	  0.555286	  0.089777	  0.372418	  0.808276	
1.0925	  0.489418	  0.259954	  0.154184	  0.133090	  0.094546	  0.531729	  0.198874	  0.276295	  0.328723	  0.287221	  0.046373	  0.541495	  0.561003	  0.090480	  0.374048	  0.814362	
1.093	  0.495899	  0.262589	  0.155665	  0.134067	  0.095015	  0.530180	  0.200175	  0.280313	  0.332611	  0.290098	  0.046850	  0.544744	  0.566663	  0.091190	  0.375667	  0.820437	
1.0935	  0.502376	  0.265206	  0.157135	  0.135035	  0.095482	  0.528495	  0.201449	  0.284328	  0.336498	  0.292969	  0.047326	  0.547931	  0.572263	  0.091908	  0.377276	  0.826501	
